<svg width="21" height="29" viewBox="0 0 21 29" fill="none" xmlns="http://www.w3.org/2000/svg">
<path d="M10.15 2.41735e-06C8.81683 -0.000917967 7.49655 0.260991 6.26468 0.770751C5.03281 1.28051 3.91351 2.02812 2.97082 2.97082C2.02812 3.91351 1.28051 5.03281 0.770751 6.26468C0.260991 7.49655 -0.000917967 8.81683 2.41735e-06 10.15C2.41735e-06 17.763 10.15 29 10.15 29C10.15 29 20.3 17.763 20.3 10.15C20.3009 8.81683 20.039 7.49655 19.5293 6.26468C19.0195 5.03281 18.2719 3.91351 17.3292 2.97082C16.3865 2.02812 15.2672 1.28051 14.0353 0.770751C12.8035 0.260991 11.4832 -0.000917967 10.15 2.41735e-06ZM10.15 13.775C9.43305 13.775 8.73219 13.5624 8.13606 13.1641C7.53993 12.7658 7.07531 12.1996 6.80094 11.5372C6.52657 10.8748 6.45478 10.146 6.59466 9.4428C6.73453 8.73962 7.07977 8.09371 7.58674 7.58674C8.09371 7.07977 8.73962 6.73453 9.4428 6.59466C10.146 6.45478 10.8748 6.52657 11.5372 6.80094C12.1996 7.07531 12.7658 7.53993 13.1641 8.13606C13.5624 8.73219 13.775 9.43305 13.775 10.15C13.7747 11.1113 13.3927 12.0332 12.713 12.713C12.0332 13.3927 11.1113 13.7747 10.15 13.775Z" fill="#49D6CB"/>
</svg>
