<svg width="33" height="26" viewBox="0 0 33 26" fill="none" xmlns="http://www.w3.org/2000/svg">
<path d="M29.25 0H3.25C2.39049 0.00317683 1.56734 0.347116 0.961072 0.95638C0.354807 1.56564 0.014935 2.39049 0.016 3.25L0 22.75C0.00263751 23.6111 0.345894 24.4363 0.954817 25.0452C1.56374 25.6541 2.38886 25.9974 3.25 26H29.25C30.1111 25.9974 30.9363 25.6541 31.5452 25.0452C32.1541 24.4363 32.4974 23.6111 32.5 22.75V3.25C32.4974 2.38886 32.1541 1.56374 31.5452 0.954817C30.9363 0.345894 30.1111 0.00263751 29.25 0ZM29.25 6.5L16.25 14.625L3.25 6.5V3.25L16.25 11.375L29.25 3.25V6.5Z" fill="#49D6CB"/>
</svg>
