<svg width="37" height="36" viewBox="0 0 37 36" fill="none" xmlns="http://www.w3.org/2000/svg">
<path d="M18.331 35.662C14.8043 35.662 11.3569 34.6162 8.42461 32.6569C5.49231 30.6976 3.20687 27.9128 1.85728 24.6546C0.507698 21.3964 0.154622 17.8112 0.842635 14.3524C1.53065 10.8935 3.22887 7.71631 5.72258 5.2226C8.21629 2.72889 11.3935 1.03064 14.8523 0.342624C18.3112 -0.345389 21.8965 0.0077318 25.1546 1.35732C28.4128 2.7069 31.1976 4.99235 33.1569 7.92464C35.1162 10.8569 36.162 14.3044 36.162 17.831C36.1567 22.5585 34.2764 27.0908 30.9336 30.4336C27.5908 33.7764 23.0584 35.6567 18.331 35.662Z" fill="#49D6CB"/>
<path fill-rule="evenodd" clip-rule="evenodd" d="M15.535 17.916V28.25C15.535 28.3214 15.5633 28.3898 15.6138 28.4403C15.6642 28.4907 15.7327 28.519 15.804 28.519H19.642C19.7134 28.519 19.7818 28.4907 19.8322 28.4403C19.8827 28.3898 19.911 28.3214 19.911 28.25V17.75H22.694C22.7614 17.75 22.8263 17.7248 22.8759 17.6792C22.9255 17.6337 22.9562 17.5712 22.962 17.504L23.23 14.3391C23.233 14.302 23.2284 14.2646 23.2163 14.2294C23.2042 14.1942 23.185 14.1619 23.1598 14.1345C23.1346 14.1071 23.1041 14.0851 23.0701 14.0701C23.036 14.055 22.9992 14.0472 22.962 14.047H19.912V11.802C19.912 11.5493 20.0124 11.3069 20.1911 11.1282C20.3698 10.9495 20.6122 10.849 20.865 10.849H23.01C23.0814 10.849 23.1497 10.8207 23.2002 10.7703C23.2506 10.7198 23.279 10.6514 23.279 10.58V7.41304C23.279 7.3417 23.2506 7.27329 23.2002 7.22284C23.1497 7.17239 23.0814 7.14404 23.01 7.14404H19.387C18.3659 7.14404 17.3866 7.54967 16.6646 8.27168C15.9426 8.9937 15.537 9.97297 15.537 10.994V14.0441H13.618C13.5466 14.0441 13.4782 14.0724 13.4278 14.1228C13.3773 14.1733 13.349 14.2417 13.349 14.313V17.478C13.349 17.5494 13.3773 17.6178 13.4278 17.6683C13.4782 17.7187 13.5466 17.747 13.618 17.747H15.537L15.535 17.916Z" fill="white"/>
</svg>
