<svg width="37" height="37" viewBox="0 0 37 37" fill="none" xmlns="http://www.w3.org/2000/svg">
<path d="M18.4731 36.8689C14.9183 36.8691 11.4433 35.8151 8.48752 33.8404C5.53174 31.8656 3.22789 29.0586 1.8674 25.7745C0.506912 22.4904 0.150888 18.8766 0.844267 15.3901C1.53765 11.9036 3.24932 8.70104 5.76285 6.18737C8.27638 3.6737 11.4789 1.96185 14.9653 1.26827C18.4517 0.574702 22.0656 0.930584 25.3498 2.29089C28.634 3.65119 31.441 5.95482 33.416 8.91049C35.3909 11.8662 36.445 15.3411 36.445 18.8959C36.4397 23.6608 34.5446 28.2291 31.1754 31.5985C27.8062 34.9679 23.238 36.8633 18.4731 36.8689Z" fill="#49D6CB"/>
<path d="M28.634 20.2648V26.9749C28.634 27.0544 28.6024 27.1307 28.5461 27.187C28.4899 27.2433 28.4136 27.2749 28.334 27.2749H24.87C24.7904 27.2749 24.7142 27.2433 24.6579 27.187C24.6016 27.1307 24.57 27.0544 24.57 26.9749V20.7339C24.57 19.0919 23.984 17.9699 22.511 17.9699C22.0529 17.9726 21.6067 18.1168 21.2337 18.3828C20.8607 18.6488 20.5789 19.0236 20.427 19.4559C20.3222 19.7753 20.2765 20.1111 20.2921 20.4469V26.9749C20.2921 27.0544 20.2604 27.1307 20.2042 27.187C20.1479 27.2433 20.0716 27.2749 19.992 27.2749H16.5291C16.4495 27.2749 16.3732 27.2433 16.3169 27.187C16.2606 27.1307 16.229 27.0544 16.229 26.9749C16.237 25.3129 16.272 17.2489 16.236 15.3539C16.236 15.2743 16.2677 15.198 16.3239 15.1417C16.3802 15.0855 16.4564 15.0538 16.536 15.0538H19.993C20.0726 15.0538 20.1489 15.0855 20.2051 15.1417C20.2614 15.198 20.293 15.2743 20.293 15.3539V16.7858C20.285 16.7998 20.2731 16.8128 20.2661 16.8258H20.293V16.7858C20.6609 16.1465 21.1969 15.6201 21.8428 15.264C22.4888 14.9079 23.22 14.7356 23.957 14.7659C26.631 14.7659 28.636 16.5129 28.636 20.2659L28.634 20.2648ZM10.2141 27.2759H13.676C13.7556 27.2759 13.8319 27.2443 13.8882 27.188C13.9444 27.1317 13.976 27.0554 13.976 26.9758V15.3508C13.976 15.2713 13.9444 15.195 13.8882 15.1387C13.8319 15.0825 13.7556 15.0509 13.676 15.0509H10.212C10.1325 15.0509 10.0561 15.0825 9.99988 15.1387C9.94362 15.195 9.91205 15.2713 9.91205 15.3508V26.9758C9.91205 27.0154 9.91986 27.0546 9.93506 27.0911C9.95026 27.1277 9.97254 27.1608 10.0006 27.1887C10.0287 27.2166 10.062 27.2386 10.0986 27.2536C10.1353 27.2685 10.1745 27.2761 10.2141 27.2759Z" fill="white"/>
<path d="M11.825 13.496C13.0268 13.496 14.001 12.5218 14.001 11.32C14.001 10.1183 13.0268 9.14404 11.825 9.14404C10.6232 9.14404 9.64899 10.1183 9.64899 11.32C9.64899 12.5218 10.6232 13.496 11.825 13.496Z" fill="white"/>
</svg>
