<svg width="36" height="37" viewBox="0 0 36 37" fill="none" xmlns="http://www.w3.org/2000/svg">
<path d="M18.215 36.2972C14.7113 36.2974 11.2861 35.2586 8.3727 33.3121C5.45933 31.3656 3.18861 28.5989 1.84768 25.3619C0.506748 22.1249 0.155872 18.5629 0.839378 15.1264C1.52288 11.6899 3.2101 8.53335 5.68764 6.0558C8.16519 3.57826 11.3218 1.89104 14.7583 1.20754C18.1947 0.524033 21.7567 0.874924 24.9937 2.21585C28.2308 3.55678 30.9975 5.82752 32.9439 8.74089C34.8904 11.6543 35.9292 15.0794 35.929 18.5832C35.9235 23.2795 34.0554 27.7819 30.7346 31.1027C27.4138 34.4236 22.9114 36.2916 18.215 36.2972ZM24.188 11.3972C23.9285 11.3968 23.6747 11.4734 23.4588 11.6174C23.2429 11.7613 23.0746 11.9661 22.9751 12.2058C22.8757 12.4455 22.8496 12.7093 22.9002 12.9638C22.9508 13.2184 23.0758 13.4521 23.2594 13.6356C23.4429 13.819 23.6768 13.9438 23.9314 13.9942C24.1859 14.0446 24.4497 14.0184 24.6894 13.9187C24.929 13.8191 25.1336 13.6506 25.2774 13.4346C25.4212 13.2185 25.4976 12.9647 25.497 12.7052C25.497 12.3578 25.3592 12.0247 25.1137 11.7789C24.8683 11.5331 24.5354 11.3947 24.188 11.3942V11.3972ZM18.36 13.0782C17.2708 13.078 16.206 13.4008 15.3003 14.0058C14.3945 14.6108 13.6885 15.4708 13.2715 16.4771C12.8545 17.4833 12.7453 18.5906 12.9577 19.6589C13.1701 20.7273 13.6945 21.7086 14.4646 22.4789C15.2347 23.2491 16.216 23.7737 17.2843 23.9863C18.3526 24.1989 19.4599 24.0899 20.4662 23.6731C21.4725 23.2563 22.3327 22.5505 22.9379 21.6448C23.5431 20.7392 23.8661 19.6744 23.8661 18.5852C23.8653 17.1248 23.285 15.7244 22.2527 14.6913C21.2204 13.6583 19.8204 13.0771 18.36 13.0752V13.0782ZM18.36 22.1122C17.6624 22.1122 16.9805 21.9053 16.4005 21.5178C15.8205 21.1302 15.3685 20.5794 15.1015 19.9349C14.8346 19.2905 14.7647 18.5813 14.9008 17.8971C15.0369 17.2129 15.3728 16.5845 15.866 16.0912C16.3593 15.598 16.9878 15.2621 17.672 15.126C18.3561 14.9899 19.0653 15.0597 19.7097 15.3267C20.3542 15.5936 20.9051 16.0457 21.2926 16.6257C21.6802 17.2057 21.887 17.8876 21.887 18.5852C21.8852 19.5198 21.5129 20.4155 20.8518 21.0761C20.1906 21.7366 19.2946 22.1081 18.36 22.1092V22.1122ZM29.4701 14.0122C29.4701 12.231 28.7624 10.5228 27.503 9.26326C26.2435 8.00377 24.5352 7.29619 22.7541 7.29619H13.89C12.1089 7.29646 10.4008 8.00412 9.14138 9.26355C7.88194 10.523 7.1743 12.2311 7.17403 14.0122V22.8772C7.1743 24.6583 7.88194 26.3664 9.14138 27.6258C10.4008 28.8853 12.1089 29.5929 13.89 29.5932H22.7541C24.5352 29.5932 26.2435 28.8856 27.503 27.6261C28.7624 26.3666 29.4701 24.6584 29.4701 22.8772V14.0122ZM27.37 22.8772C27.37 24.1006 26.884 25.274 26.0189 26.1391C25.1538 27.0042 23.9805 27.4902 22.757 27.4902H13.893C12.6698 27.4899 11.4967 27.0038 10.6318 26.1387C9.76691 25.2736 9.28103 24.1005 9.28103 22.8772V14.0062C9.28103 12.7829 9.76691 11.6097 10.6318 10.7447C11.4967 9.87959 12.6698 9.39346 13.893 9.39319H22.757C23.9805 9.39319 25.1538 9.87921 26.0189 10.7443C26.884 11.6094 27.37 12.7828 27.37 14.0062V22.8772Z" fill="#49D6CB"/>
</svg>
