<svg width="29" height="29" viewBox="0 0 29 29" fill="none" xmlns="http://www.w3.org/2000/svg">
<path d="M5.768 12.7308C8.07768 17.2472 11.7516 20.9212 16.268 23.2308L19.773 19.7258C19.9814 19.5172 20.244 19.3709 20.5311 19.3034C20.8182 19.2359 21.1184 19.2499 21.398 19.3438C23.2337 19.9469 25.1538 20.2534 27.086 20.2518C27.5079 20.2537 27.912 20.4221 28.2104 20.7205C28.5087 21.0188 28.6772 21.4229 28.679 21.8448V27.4058C28.6772 27.8278 28.5087 28.2319 28.2104 28.5302C27.912 28.8286 27.5079 28.997 27.086 28.9988C23.5289 28.999 20.0066 28.2984 16.7203 26.9372C13.4339 25.576 10.4479 23.5808 7.93266 21.0655C5.41745 18.5502 3.42234 15.5641 2.06124 12.2777C0.700151 8.99127 -0.000262591 5.46895 7.38498e-08 1.91185C0.00184198 1.48993 0.170267 1.08581 0.468614 0.787462C0.766961 0.489114 1.17108 0.32069 1.593 0.318848H7.17C7.59192 0.32069 7.99604 0.489114 8.29439 0.787462C8.59273 1.08581 8.76116 1.48993 8.763 1.91185C8.76011 3.84416 9.06665 5.76447 9.671 7.59985C9.76082 7.88124 9.77099 8.182 9.70039 8.46881C9.62979 8.75563 9.48117 9.0173 9.271 9.22485L5.768 12.7308Z" fill="#49D6CB"/>
</svg>
