<svg width="37" height="37" viewBox="0 0 37 37" fill="none" xmlns="http://www.w3.org/2000/svg">
<path d="M18.3311 36.0819C14.8044 36.0819 11.357 35.0362 8.42471 33.0769C5.49242 31.1176 3.20698 28.3327 1.85739 25.0746C0.507804 21.8164 0.154668 18.2312 0.842681 14.7723C1.53069 11.3134 3.22891 8.13623 5.72262 5.64252C8.21633 3.14881 11.3935 1.45056 14.8524 0.762546C18.3113 0.0745324 21.8965 0.427654 25.1547 1.77724C28.4129 3.12683 31.1977 5.41227 33.157 8.34456C35.1163 11.2769 36.1621 14.7243 36.1621 18.2509C36.1568 22.9784 34.2764 27.5107 30.9336 30.8535C27.5908 34.1963 23.0585 36.0766 18.3311 36.0819Z" fill="#49D6CB"/>
<path d="M28.579 11.743C27.9076 12.0322 27.2018 12.2338 26.479 12.3429C26.817 12.2859 27.316 11.6739 27.515 11.4259C27.8266 11.0496 28.0641 10.6177 28.215 10.153C28.233 10.116 28.247 10.071 28.215 10.043C28.1972 10.0352 28.1777 10.032 28.1583 10.0335C28.139 10.0351 28.1203 10.0414 28.104 10.0519C27.3158 10.4731 26.4779 10.7939 25.61 11.0069C25.5799 11.0164 25.5477 11.0171 25.5173 11.009C25.4868 11.0008 25.4593 10.9842 25.438 10.961C25.3712 10.8811 25.2983 10.8065 25.22 10.7379C24.8598 10.4278 24.4519 10.178 24.012 9.99796C23.4248 9.75967 22.7914 9.65712 22.159 9.69795C21.5449 9.74069 20.9465 9.91098 20.402 10.198C19.8556 10.4836 19.3731 10.8776 18.984 11.3559C18.5804 11.8536 18.2912 12.434 18.137 13.056C18.0048 13.6443 17.9898 14.2529 18.093 14.847C18.106 14.947 18.093 14.9609 18.007 14.9469C14.7071 14.6108 11.6515 13.0553 9.43799 10.5849C9.33799 10.4709 9.28399 10.4709 9.20099 10.5939C8.75588 11.4156 8.58759 12.3588 8.72107 13.2837C8.85456 14.2086 9.28268 15.0657 9.94196 15.728C10.11 15.887 10.282 16.0459 10.468 16.1909C9.89135 16.148 9.32908 15.9906 8.81397 15.728C8.71397 15.665 8.66397 15.701 8.65497 15.814C8.64836 15.9781 8.65744 16.1425 8.68201 16.3049C8.7834 17.0758 9.08749 17.8059 9.56324 18.4207C10.039 19.0356 10.6693 19.5133 11.39 19.8049C11.566 19.8815 11.7502 19.9378 11.939 19.9729C11.4048 20.0796 10.8566 20.0965 10.317 20.0229C10.199 19.9999 10.154 20.0599 10.199 20.1729C10.4766 20.8995 10.9353 21.543 11.5316 22.0423C12.1279 22.5417 12.842 22.8803 13.606 23.026C13.761 23.053 13.915 23.0529 14.07 23.0889C14.061 23.1029 14.052 23.103 14.043 23.116C13.3812 23.7125 12.5822 24.1361 11.717 24.349C10.585 24.7526 9.37915 24.9068 8.18201 24.8009C7.99201 24.7729 7.95197 24.7749 7.89997 24.8009C7.84797 24.8269 7.89396 24.8789 7.95496 24.9279C8.19496 25.0869 8.44098 25.228 8.69098 25.364C9.44155 25.764 10.2336 26.0809 11.053 26.3089C13.1611 26.9431 15.3987 27.0131 17.5423 26.5119C19.6859 26.0108 21.6605 24.956 23.269 23.4529C25.769 20.9649 26.65 17.535 26.65 14.101C26.65 13.966 26.809 13.892 26.903 13.821C27.5359 13.3283 28.0935 12.7458 28.558 12.0919C28.6296 11.997 28.6651 11.8797 28.658 11.7609V11.743C28.657 11.688 28.664 11.705 28.579 11.743Z" fill="white"/>
<path fill-rule="evenodd" clip-rule="evenodd" d="M14.746 26.756C14.746 26.721 15.114 26.756 14.746 26.756C14.746 26.738 14.791 26.756 14.746 26.756Z" fill="white"/>
<path fill-rule="evenodd" clip-rule="evenodd" d="M22.097 9.71704C22.0844 9.726 22.0694 9.73082 22.054 9.73082C22.0386 9.73082 22.0235 9.726 22.011 9.71704H22.097Z" fill="white"/>
</svg>
