<svg width="37" height="37" viewBox="0 0 37 37" fill="none" xmlns="http://www.w3.org/2000/svg">
<path d="M18.331 36.5858C14.8044 36.5858 11.3569 35.5401 8.42465 33.5808C5.49236 31.6215 3.20692 28.8367 1.85733 25.5785C0.507743 22.3203 0.154607 18.7351 0.84262 15.2762C1.53063 11.8173 3.22891 8.64012 5.72262 6.14641C8.21633 3.6527 11.3935 1.95446 14.8524 1.26645C18.3113 0.578439 21.8964 0.93156 25.1546 2.28115C28.4128 3.63073 31.1977 5.91617 33.157 8.84847C35.1162 11.7808 36.162 15.2282 36.162 18.7548C36.1567 23.4823 34.2764 28.0146 30.9336 31.3574C27.5907 34.7002 23.0585 36.5805 18.331 36.5858Z" fill="#49D6CB"/>
<path d="M29.01 16.0499C29.01 14.8355 28.5276 13.6708 27.6689 12.8121C26.8101 11.9534 25.6454 11.4709 24.431 11.4709H12.551C11.3366 11.4709 10.1719 11.9534 9.31314 12.8121C8.45441 13.6708 7.97202 14.8355 7.97202 16.0499V21.6159C7.97202 22.8304 8.45441 23.995 9.31314 24.8538C10.1719 25.7125 11.3366 26.1949 12.551 26.1949H24.428C25.6424 26.1949 26.8071 25.7125 27.6659 24.8538C28.5246 23.995 29.007 22.8304 29.007 21.6159L29.01 16.0499ZM21.517 19.1129L16.78 21.7129C16.574 21.8249 16.389 21.6759 16.389 21.4409V16.1079C16.389 15.8709 16.58 15.7229 16.789 15.8389L21.558 18.5739C21.6035 18.6051 21.6399 18.6479 21.6634 18.6978C21.687 18.7477 21.6968 18.803 21.6919 18.858C21.687 18.9129 21.6676 18.9656 21.6357 19.0106C21.6037 19.0556 21.5603 19.0912 21.51 19.1139L21.517 19.1129Z" fill="white"/>
</svg>
